<svg width="178" height="30" viewBox="0 0 178 30" fill="none" xmlns="http://www.w3.org/2000/svg">
<path d="M13.7204 14.4622C13.0105 14.4622 12.4346 15.0375 12.4346 15.7479C12.4957 19.6184 11.9986 23.3497 10.9507 27.0809C10.8044 27.6017 11.0659 28.7143 12.1893 28.7143C12.7507 28.7143 13.2666 28.3436 13.4263 27.7758C14.1511 25.2092 15.0891 21.0574 15.0056 15.7479C15.0061 15.0381 14.4307 14.4622 13.7204 14.4622V14.4622ZM13.6743 10.0838C10.3925 10.08 8.10227 12.6054 8.14781 15.4993C8.18798 18.0676 7.94691 20.6374 7.43155 23.1359C7.28744 23.8313 7.7353 24.5122 8.43013 24.6552C9.12925 24.7983 9.80532 24.352 9.94943 23.6567C10.5034 20.9733 10.7621 18.2149 10.7193 15.4592C10.6973 14.069 11.7864 12.6472 13.6363 12.6552C15.3136 12.6804 16.6979 14.0127 16.7231 15.6268C16.7643 18.2009 16.5725 20.7874 16.1547 23.317C16.0384 24.0167 16.5131 24.6788 17.2133 24.7945C18.2831 24.9729 18.6495 23.9856 18.6908 23.7354C19.1344 21.0552 19.3369 18.3134 19.2945 15.5867C19.2474 12.5974 16.7263 10.1288 13.6743 10.0838V10.0838ZM7.74441 9.02416C7.19262 8.57737 6.38528 8.65987 5.93582 9.21058C4.5633 10.8981 3.82561 13.0292 3.8599 15.2106C3.89151 17.2238 3.72758 19.2429 3.37186 21.2133C3.2465 21.9124 3.7099 22.5809 4.40901 22.7074C5.48635 22.8949 5.85921 21.914 5.90314 21.6702C6.28832 19.5359 6.46564 17.3492 6.43136 15.1704C6.40618 13.5697 6.92422 12.0697 7.93137 10.8327C8.3787 10.282 8.29513 9.47255 7.74441 9.02416ZM13.6089 5.68505C12.7834 5.66308 11.9552 5.76219 11.1564 5.9513C10.4659 6.11523 10.0384 6.80737 10.2012 7.49898C10.3652 8.18951 11.0584 8.61487 11.7489 8.45416C12.3409 8.31434 12.9527 8.25219 13.5704 8.25648C17.6113 8.31701 20.9488 11.5511 21.0105 15.4661C21.0421 17.4954 20.9419 19.5434 20.7115 21.5534C20.6312 22.259 21.1374 22.897 21.8424 22.9774C22.7382 23.0818 23.2091 22.3409 23.2664 21.8465C23.5098 19.7153 23.6152 17.5707 23.5819 15.4259C23.4983 10.1358 19.0245 5.76541 13.6089 5.68505V5.68505ZM27.1128 12.1913C26.9596 11.4992 26.2819 11.0556 25.5802 11.2125C24.8869 11.3658 24.4487 12.0515 24.6019 12.7452C24.8542 13.8922 24.865 14.7493 24.8537 16.0452C24.8478 16.7561 25.4189 17.3358 26.1287 17.3417H26.1394C26.845 17.3417 27.4193 16.7733 27.4252 16.0667C27.4348 14.8784 27.4466 13.7036 27.1128 12.1913ZM24.9635 7.3313C22.3546 3.61398 18.0854 1.35487 13.543 1.28683C9.80425 1.24183 6.34618 2.62023 3.77418 5.19326C1.29005 7.68059 -0.0487184 10.9843 0.00699651 14.4992L0.000567866 15.6493C-0.0203252 16.3592 0.537896 16.9517 1.24773 16.972C1.26005 16.9731 1.27344 16.9731 1.2863 16.9731C1.97845 16.9731 2.55006 16.4213 2.57042 15.7249L2.57899 14.4584C2.53453 11.6459 3.60543 9.00166 5.59403 7.01201C7.67048 4.93344 10.4873 3.81541 13.5055 3.8588C17.2261 3.91398 20.7233 5.7638 22.8603 8.80826C23.268 9.39005 24.0689 9.5288 24.6507 9.12219C25.2314 8.71398 25.3718 7.91201 24.9635 7.3313V7.3313Z" fill="#D5A021"/>
<path d="M49.2085 24H45.3491L45.3745 22.0068H49.2085C50.5288 22.0068 51.6291 21.7318 52.5093 21.1816C53.3895 20.623 54.0496 19.8444 54.4897 18.8457C54.9383 17.8385 55.1626 16.6621 55.1626 15.3164V14.1865C55.1626 13.1286 55.0356 12.1891 54.7817 11.3682C54.5278 10.5387 54.1554 9.84049 53.6646 9.27344C53.1737 8.69792 52.5728 8.26204 51.8618 7.96582C51.1593 7.6696 50.3511 7.52148 49.437 7.52148H45.2729V5.51562H49.437C50.6473 5.51562 51.7518 5.71875 52.7505 6.125C53.7492 6.52279 54.6082 7.10254 55.3276 7.86426C56.0555 8.61751 56.6141 9.53158 57.0034 10.6064C57.3927 11.6729 57.5874 12.8747 57.5874 14.2119V15.3164C57.5874 16.6536 57.3927 17.8597 57.0034 18.9346C56.6141 20.001 56.0513 20.9108 55.3149 21.6641C54.5871 22.4173 53.7069 22.9971 52.6743 23.4033C51.6502 23.8011 50.495 24 49.2085 24ZM46.6567 5.51562V24H44.2065V5.51562H46.6567ZM63.4653 10.2637V24H61.104V10.2637H63.4653ZM60.9263 6.62012C60.9263 6.23926 61.0405 5.91764 61.269 5.65527C61.506 5.3929 61.853 5.26172 62.3101 5.26172C62.7586 5.26172 63.1014 5.3929 63.3384 5.65527C63.5838 5.91764 63.7065 6.23926 63.7065 6.62012C63.7065 6.98405 63.5838 7.2972 63.3384 7.55957C63.1014 7.81348 62.7586 7.94043 62.3101 7.94043C61.853 7.94043 61.506 7.81348 61.269 7.55957C61.0405 7.2972 60.9263 6.98405 60.9263 6.62012ZM76.1353 10.2637H78.2681V23.708C78.2681 24.9183 78.0226 25.9508 77.5317 26.8057C77.0409 27.6605 76.3553 28.3079 75.4751 28.748C74.6034 29.1966 73.5962 29.4209 72.4536 29.4209C71.9797 29.4209 71.4211 29.3447 70.7778 29.1924C70.1431 29.0485 69.5168 28.7988 68.8989 28.4434C68.2896 28.0964 67.7775 27.6266 67.3628 27.0342L68.5942 25.6377C69.1698 26.3317 69.7707 26.8141 70.397 27.085C71.0317 27.3558 71.658 27.4912 72.2759 27.4912C73.0207 27.4912 73.6639 27.3516 74.2056 27.0723C74.7472 26.793 75.1662 26.3783 75.4624 25.8281C75.7671 25.2865 75.9194 24.6178 75.9194 23.8223V13.2852L76.1353 10.2637ZM66.6772 17.2842V17.0176C66.6772 15.9681 66.8 15.016 67.0454 14.1611C67.2993 13.2979 67.659 12.5573 68.1245 11.9395C68.5985 11.3216 69.1698 10.8477 69.8384 10.5176C70.507 10.179 71.2603 10.0098 72.0981 10.0098C72.9614 10.0098 73.7147 10.1621 74.3579 10.4668C75.0096 10.763 75.5597 11.1989 76.0083 11.7744C76.4653 12.3415 76.825 13.027 77.0874 13.8311C77.3498 14.6351 77.5317 15.5449 77.6333 16.5605V17.7285C77.5402 18.7357 77.3582 19.6413 77.0874 20.4453C76.825 21.2493 76.4653 21.9349 76.0083 22.502C75.5597 23.069 75.0096 23.5049 74.3579 23.8096C73.7062 24.1058 72.9445 24.2539 72.0728 24.2539C71.2518 24.2539 70.507 24.0804 69.8384 23.7334C69.1782 23.3864 68.6112 22.8997 68.1372 22.2734C67.6632 21.6471 67.2993 20.9108 67.0454 20.0645C66.8 19.2096 66.6772 18.2829 66.6772 17.2842ZM69.0259 17.0176V17.2842C69.0259 17.9697 69.0936 18.613 69.229 19.2139C69.3729 19.8148 69.5887 20.3438 69.8765 20.8008C70.1727 21.2578 70.5493 21.6175 71.0063 21.8799C71.4634 22.1338 72.0093 22.2607 72.644 22.2607C73.4227 22.2607 74.0659 22.0957 74.5737 21.7656C75.0815 21.4355 75.4836 20.9997 75.7798 20.458C76.0845 19.9163 76.3215 19.3281 76.4907 18.6934V15.6338C76.3976 15.1683 76.2537 14.7197 76.0591 14.2881C75.8729 13.848 75.6274 13.4587 75.3228 13.1201C75.0265 12.7731 74.6584 12.498 74.2183 12.2949C73.7782 12.0918 73.2619 11.9902 72.6694 11.9902C72.0262 11.9902 71.4718 12.1257 71.0063 12.3965C70.5493 12.6589 70.1727 13.0228 69.8765 13.4883C69.5887 13.9453 69.3729 14.4785 69.229 15.0879C69.0936 15.6888 69.0259 16.332 69.0259 17.0176ZM84.3872 10.2637V24H82.0259V10.2637H84.3872ZM81.8481 6.62012C81.8481 6.23926 81.9624 5.91764 82.1909 5.65527C82.4279 5.3929 82.7749 5.26172 83.2319 5.26172C83.6805 5.26172 84.0233 5.3929 84.2603 5.65527C84.5057 5.91764 84.6284 6.23926 84.6284 6.62012C84.6284 6.98405 84.5057 7.2972 84.2603 7.55957C84.0233 7.81348 83.6805 7.94043 83.2319 7.94043C82.7749 7.94043 82.4279 7.81348 82.1909 7.55957C81.9624 7.2972 81.8481 6.98405 81.8481 6.62012ZM93.9087 10.2637V12.0664H86.4819V10.2637H93.9087ZM88.9956 6.9248H91.3442V20.5977C91.3442 21.0632 91.4162 21.4144 91.5601 21.6514C91.7039 21.8883 91.8901 22.0449 92.1187 22.1211C92.3472 22.1973 92.5926 22.2354 92.855 22.2354C93.0496 22.2354 93.2528 22.2184 93.4644 22.1846C93.6844 22.1423 93.8494 22.1084 93.9595 22.083L93.9722 24C93.786 24.0592 93.5405 24.1143 93.2358 24.165C92.9396 24.2243 92.5799 24.2539 92.1567 24.2539C91.5812 24.2539 91.0522 24.1396 90.5698 23.9111C90.0874 23.6826 89.7023 23.3018 89.4146 22.7686C89.1353 22.2269 88.9956 21.499 88.9956 20.585V6.9248ZM104.763 21.6514V14.5801C104.763 14.0384 104.653 13.5687 104.433 13.1709C104.222 12.7646 103.9 12.4515 103.468 12.2314C103.037 12.0114 102.503 11.9014 101.869 11.9014C101.276 11.9014 100.756 12.0029 100.307 12.2061C99.867 12.4092 99.52 12.6758 99.2661 13.0059C99.0207 13.3359 98.8979 13.6914 98.8979 14.0723H96.5493C96.5493 13.5814 96.6763 13.0947 96.9302 12.6123C97.1841 12.1299 97.548 11.694 98.022 11.3047C98.5044 10.9069 99.0799 10.5938 99.7485 10.3652C100.426 10.1283 101.179 10.0098 102.008 10.0098C103.007 10.0098 103.887 10.179 104.649 10.5176C105.419 10.8561 106.02 11.3682 106.452 12.0537C106.892 12.7308 107.112 13.5814 107.112 14.6055V21.0039C107.112 21.4609 107.15 21.9476 107.226 22.4639C107.311 22.9801 107.433 23.4245 107.594 23.7969V24H105.144C105.026 23.7292 104.932 23.3695 104.865 22.9209C104.797 22.4639 104.763 22.0407 104.763 21.6514ZM105.169 15.6719L105.195 17.3223H102.821C102.152 17.3223 101.556 17.3773 101.031 17.4873C100.506 17.5889 100.066 17.7454 99.7104 17.957C99.355 18.1686 99.0841 18.4352 98.8979 18.7568C98.7118 19.07 98.6187 19.4382 98.6187 19.8613C98.6187 20.293 98.716 20.6865 98.9106 21.042C99.1053 21.3975 99.3973 21.681 99.7866 21.8926C100.184 22.0957 100.671 22.1973 101.247 22.1973C101.966 22.1973 102.601 22.0449 103.151 21.7402C103.701 21.4355 104.137 21.0632 104.458 20.623C104.789 20.1829 104.966 19.7555 104.992 19.3408L105.995 20.4707C105.935 20.8262 105.775 21.2197 105.512 21.6514C105.25 22.083 104.899 22.4977 104.458 22.8955C104.027 23.2848 103.511 23.6107 102.91 23.873C102.317 24.127 101.649 24.2539 100.904 24.2539C99.9728 24.2539 99.1561 24.0719 98.4536 23.708C97.7596 23.3441 97.2179 22.8574 96.8286 22.248C96.4478 21.6302 96.2573 20.9404 96.2573 20.1787C96.2573 19.4424 96.4012 18.7949 96.689 18.2363C96.9767 17.6693 97.3914 17.1995 97.9331 16.8271C98.4748 16.4463 99.1265 16.1585 99.8882 15.9639C100.65 15.7692 101.5 15.6719 102.44 15.6719H105.169ZM113.358 4.5V24H110.997V4.5H113.358ZM126.612 19.1631C126.612 18.833 126.561 18.5368 126.459 18.2744C126.366 18.0036 126.189 17.7581 125.926 17.5381C125.664 17.3096 125.296 17.0853 124.822 16.8652C124.348 16.6452 123.734 16.4167 122.981 16.1797C122.143 15.9089 121.347 15.6042 120.594 15.2656C119.849 14.9271 119.189 14.5335 118.614 14.085C118.047 13.6279 117.598 13.099 117.268 12.498C116.946 11.8971 116.786 11.1989 116.786 10.4033C116.786 9.63314 116.955 8.9349 117.293 8.30859C117.632 7.67383 118.106 7.13216 118.715 6.68359C119.325 6.22656 120.044 5.87533 120.874 5.62988C121.711 5.38444 122.63 5.26172 123.628 5.26172C124.991 5.26172 126.18 5.50716 127.196 5.99805C128.211 6.48893 128.999 7.16178 129.557 8.0166C130.124 8.87142 130.408 9.84896 130.408 10.9492H126.625C126.625 10.4076 126.51 9.93359 126.282 9.52734C126.062 9.11263 125.723 8.78678 125.266 8.5498C124.818 8.31283 124.25 8.19434 123.565 8.19434C122.905 8.19434 122.355 8.2959 121.915 8.49902C121.474 8.69368 121.144 8.96029 120.924 9.29883C120.704 9.62891 120.594 10.0013 120.594 10.416C120.594 10.7292 120.67 11.0127 120.823 11.2666C120.984 11.5205 121.221 11.7575 121.534 11.9775C121.847 12.1976 122.232 12.4049 122.689 12.5996C123.146 12.7943 123.675 12.9847 124.276 13.1709C125.283 13.4756 126.167 13.8184 126.929 14.1992C127.699 14.5801 128.343 15.0075 128.859 15.4814C129.375 15.9554 129.764 16.4928 130.027 17.0938C130.289 17.6947 130.42 18.376 130.42 19.1377C130.42 19.9417 130.264 20.6611 129.951 21.2959C129.638 21.9307 129.185 22.4681 128.592 22.9082C128 23.3483 127.293 23.6826 126.472 23.9111C125.651 24.1396 124.733 24.2539 123.717 24.2539C122.803 24.2539 121.902 24.1354 121.013 23.8984C120.125 23.653 119.316 23.2848 118.588 22.7939C117.869 22.3031 117.293 21.6768 116.862 20.915C116.43 20.1533 116.214 19.252 116.214 18.2109H120.036C120.036 18.7865 120.125 19.2731 120.302 19.6709C120.48 20.0687 120.73 20.3903 121.051 20.6357C121.381 20.8812 121.771 21.0589 122.219 21.1689C122.676 21.279 123.176 21.334 123.717 21.334C124.377 21.334 124.919 21.2409 125.342 21.0547C125.774 20.8685 126.091 20.6104 126.294 20.2803C126.506 19.9502 126.612 19.5778 126.612 19.1631ZM139.51 10.2637V12.8535H131.512V10.2637H139.51ZM133.493 6.87402H137.149V19.8613C137.149 20.2591 137.2 20.5638 137.301 20.7754C137.411 20.987 137.572 21.1351 137.784 21.2197C137.995 21.2959 138.262 21.334 138.583 21.334C138.812 21.334 139.015 21.3255 139.193 21.3086C139.379 21.2832 139.536 21.2578 139.663 21.2324L139.675 23.9238C139.362 24.0254 139.024 24.1058 138.66 24.165C138.296 24.2243 137.894 24.2539 137.454 24.2539C136.65 24.2539 135.947 24.1227 135.346 23.8604C134.754 23.5895 134.297 23.1579 133.975 22.5654C133.653 21.973 133.493 21.1943 133.493 20.2295V6.87402ZM140.678 17.2715V17.0049C140.678 15.9977 140.822 15.071 141.11 14.2246C141.398 13.3698 141.817 12.6292 142.367 12.0029C142.917 11.3766 143.594 10.89 144.398 10.543C145.202 10.1875 146.125 10.0098 147.166 10.0098C148.207 10.0098 149.133 10.1875 149.946 10.543C150.758 10.89 151.44 11.3766 151.99 12.0029C152.548 12.6292 152.972 13.3698 153.259 14.2246C153.547 15.071 153.691 15.9977 153.691 17.0049V17.2715C153.691 18.2702 153.547 19.1969 153.259 20.0518C152.972 20.8981 152.548 21.6387 151.99 22.2734C151.44 22.8997 150.763 23.3864 149.958 23.7334C149.154 24.0804 148.232 24.2539 147.191 24.2539C146.15 24.2539 145.223 24.0804 144.411 23.7334C143.607 23.3864 142.925 22.8997 142.367 22.2734C141.817 21.6387 141.398 20.8981 141.11 20.0518C140.822 19.1969 140.678 18.2702 140.678 17.2715ZM144.334 17.0049V17.2715C144.334 17.847 144.385 18.3844 144.487 18.8838C144.588 19.3831 144.749 19.8232 144.969 20.2041C145.198 20.5765 145.494 20.8685 145.858 21.0801C146.222 21.2917 146.666 21.3975 147.191 21.3975C147.699 21.3975 148.135 21.2917 148.499 21.0801C148.862 20.8685 149.154 20.5765 149.375 20.2041C149.595 19.8232 149.755 19.3831 149.857 18.8838C149.967 18.3844 150.022 17.847 150.022 17.2715V17.0049C150.022 16.4463 149.967 15.9215 149.857 15.4307C149.755 14.9313 149.59 14.4912 149.362 14.1104C149.142 13.721 148.85 13.4163 148.486 13.1963C148.122 12.9762 147.682 12.8662 147.166 12.8662C146.649 12.8662 146.209 12.9762 145.845 13.1963C145.49 13.4163 145.198 13.721 144.969 14.1104C144.749 14.4912 144.588 14.9313 144.487 15.4307C144.385 15.9215 144.334 16.4463 144.334 17.0049ZM159.594 13.2598V24H155.938V10.2637H159.378L159.594 13.2598ZM163.733 10.1748L163.669 13.5645C163.492 13.5391 163.276 13.5179 163.022 13.501C162.777 13.4756 162.552 13.4629 162.349 13.4629C161.833 13.4629 161.384 13.5306 161.003 13.666C160.631 13.793 160.318 13.9834 160.064 14.2373C159.819 14.4912 159.632 14.8001 159.505 15.1641C159.387 15.528 159.319 15.9427 159.302 16.4082L158.566 16.1797C158.566 15.291 158.655 14.4743 158.833 13.7295C159.01 12.9762 159.268 12.3203 159.607 11.7617C159.954 11.2031 160.377 10.7715 160.876 10.4668C161.376 10.1621 161.947 10.0098 162.59 10.0098C162.793 10.0098 163.001 10.0267 163.212 10.0605C163.424 10.0859 163.597 10.124 163.733 10.1748ZM169.763 22.4512L173.407 10.2637H177.33L171.807 26.0693C171.689 26.4163 171.528 26.7887 171.325 27.1865C171.13 27.5843 170.863 27.9609 170.525 28.3164C170.195 28.6803 169.776 28.9766 169.268 29.2051C168.769 29.4336 168.155 29.5479 167.427 29.5479C167.08 29.5479 166.797 29.5267 166.577 29.4844C166.357 29.4421 166.094 29.3828 165.79 29.3066V26.6279C165.883 26.6279 165.98 26.6279 166.082 26.6279C166.183 26.6364 166.28 26.6406 166.374 26.6406C166.856 26.6406 167.25 26.5856 167.554 26.4756C167.859 26.3656 168.104 26.1963 168.291 25.9678C168.477 25.7477 168.625 25.46 168.735 25.1045L169.763 22.4512ZM168.24 10.2637L171.223 20.2168L171.744 24.0889L169.255 24.3555L164.317 10.2637H168.24Z" fill="#272932"/>
</svg>
