<svg width="28" height="28" viewBox="0 0 28 28" fill="none" xmlns="http://www.w3.org/2000/svg">
<path d="M13.7204 13.4622C13.0105 13.4622 12.4346 14.0375 12.4346 14.7479C12.4957 18.6184 11.9986 22.3497 10.9507 26.0809C10.8044 26.6017 11.0659 27.7143 12.1893 27.7143C12.7507 27.7143 13.2666 27.3436 13.4263 26.7758C14.1511 24.2092 15.0891 20.0574 15.0056 14.7479C15.0061 14.0381 14.4307 13.4622 13.7204 13.4622V13.4622ZM13.6743 9.0838C10.3925 9.08005 8.10227 11.6054 8.14781 14.4993C8.18798 17.0676 7.94691 19.6374 7.43155 22.1359C7.28744 22.8313 7.7353 23.5122 8.43013 23.6552C9.12925 23.7983 9.80532 23.352 9.94943 22.6567C10.5034 19.9733 10.7621 17.2149 10.7193 14.4592C10.6973 13.069 11.7864 11.6472 13.6363 11.6552C15.3136 11.6804 16.6979 13.0127 16.7231 14.6268C16.7643 17.2009 16.5725 19.7874 16.1547 22.317C16.0384 23.0167 16.5131 23.6788 17.2133 23.7945C18.2831 23.9729 18.6495 22.9856 18.6908 22.7354C19.1344 20.0552 19.3369 17.3134 19.2945 14.5867C19.2474 11.5974 16.7263 9.1288 13.6743 9.0838V9.0838ZM7.74441 8.02416C7.19262 7.57737 6.38528 7.65987 5.93582 8.21058C4.5633 9.89809 3.82561 12.0292 3.8599 14.2106C3.89151 16.2238 3.72758 18.2429 3.37186 20.2133C3.2465 20.9124 3.7099 21.5809 4.40901 21.7074C5.48635 21.8949 5.85921 20.914 5.90314 20.6702C6.28832 18.5359 6.46564 16.3492 6.43136 14.1704C6.40618 12.5697 6.92422 11.0697 7.93137 9.83273C8.3787 9.28201 8.29513 8.47255 7.74441 8.02416ZM13.6089 4.68505C12.7834 4.66308 11.9552 4.76219 11.1564 4.9513C10.4659 5.11523 10.0384 5.80737 10.2012 6.49898C10.3652 7.18951 11.0584 7.61487 11.7489 7.45416C12.3409 7.31434 12.9527 7.25219 13.5704 7.25648C17.6113 7.31701 20.9488 10.5511 21.0105 14.4661C21.0421 16.4954 20.9419 18.5434 20.7115 20.5534C20.6312 21.259 21.1374 21.897 21.8424 21.9774C22.7382 22.0818 23.2091 21.3409 23.2664 20.8465C23.5098 18.7153 23.6152 16.5707 23.5819 14.4259C23.4983 9.13576 19.0245 4.76541 13.6089 4.68505V4.68505ZM27.1128 11.1913C26.9596 10.4992 26.2819 10.0556 25.5802 10.2125C24.8869 10.3658 24.4487 11.0515 24.6019 11.7452C24.8542 12.8922 24.865 13.7493 24.8537 15.0452C24.8478 15.7561 25.4189 16.3358 26.1287 16.3417H26.1394C26.845 16.3417 27.4193 15.7733 27.4252 15.0667C27.4348 13.8784 27.4466 12.7036 27.1128 11.1913ZM24.9635 6.3313C22.3546 2.61398 18.0854 0.35487 13.543 0.286834C9.80425 0.241834 6.34618 1.62023 3.77418 4.19326C1.29005 6.68059 -0.0487184 9.98434 0.00699651 13.4992L0.000567866 14.6493C-0.0203252 15.3592 0.537896 15.9517 1.24773 15.972C1.26005 15.9731 1.27344 15.9731 1.2863 15.9731C1.97845 15.9731 2.55006 15.4213 2.57042 14.7249L2.57899 13.4584C2.53453 10.6459 3.60543 8.00166 5.59403 6.01201C7.67048 3.93344 10.4873 2.81541 13.5055 2.8588C17.2261 2.91398 20.7233 4.7638 22.8603 7.80826C23.268 8.39005 24.0689 8.5288 24.6507 8.12219C25.2314 7.71398 25.3718 6.91201 24.9635 6.3313V6.3313Z" fill="#D5A021"/>
</svg>
